<?xml version="1.0" encoding="UTF-8" standalone="no"?>
<!-- Created with Inkscape (http://www.inkscape.org/) -->

<svg
   xmlns:dc="http://purl.org/dc/elements/1.1/"
   xmlns:cc="http://creativecommons.org/ns#"
   xmlns:rdf="http://www.w3.org/1999/02/22-rdf-syntax-ns#"
   xmlns:svg="http://www.w3.org/2000/svg"
   xmlns="http://www.w3.org/2000/svg"
   xmlns:sodipodi="http://sodipodi.sourceforge.net/DTD/sodipodi-0.dtd"
   xmlns:inkscape="http://www.inkscape.org/namespaces/inkscape"
   width="251.01036mm"
   height="358.18307mm"
   viewBox="0 0 251.01036 358.18307"
   version="1.1"
   id="svg8"
   inkscape:version="0.92.4 (5da689c313, 2019-01-14)"
   sodipodi:docname="Box.svg">
  <defs
     id="defs2" />
  <sodipodi:namedview
     id="base"
     pagecolor="#ffffff"
     bordercolor="#666666"
     borderopacity="1.0"
     inkscape:pageopacity="0.0"
     inkscape:pageshadow="2"
     inkscape:zoom="1.4"
     inkscape:cx="385.5582"
     inkscape:cy="855.76446"
     inkscape:document-units="mm"
     inkscape:current-layer="layer1"
     showgrid="false"
     inkscape:window-width="2560"
     inkscape:window-height="1377"
     inkscape:window-x="-8"
     inkscape:window-y="-8"
     inkscape:window-maximized="1"
     fit-margin-top="10"
     fit-margin-right="10"
     fit-margin-bottom="10"
     fit-margin-left="10">
    <inkscape:grid
       type="xygrid"
       id="grid6233"
       originx="6.692149"
       originy="54.563067" />
  </sodipodi:namedview>
  <metadata
     id="metadata5">
    <rdf:RDF>
      <cc:Work
         rdf:about="">
        <dc:format>image/svg+xml</dc:format>
        <dc:type
           rdf:resource="http://purl.org/dc/dcmitype/StillImage" />
        <dc:title />
      </cc:Work>
    </rdf:RDF>
  </metadata>
  <g
     inkscape:label="Layer 1"
     inkscape:groupmode="layer"
     id="layer1"
     transform="translate(6.6921487,6.6199738)">
    <path
       id="path5605"
       inkscape:label="part"
       style="fill:none;stroke:#000000;stroke-width:0.0508"
       d="m 3.4577832,209.8719 h 4.942027 v -1.5 0 0 0 -1.5 h 5.1970268 v 1.5 0 0 0 1.5 h 4.857027 v -1.5 0 0 0 -1.5 h 5.197027 v 1.5 0 0 0 1.5 h 4.857027 v -1.5 0 0 0 -1.5 h 5.197027 v 1.5 0 0 0 1.5 h 4.857031 v -1.5 0 0 0 -1.5 h 5.19702 v 1.5 0 0 0 1.5 h 4.85703 v -1.5 0 0 0 -1.5 h 5.19703 v 1.5 0 0 0 1.5 h 4.85702 v -1.5 0 0 0 -1.5 h 5.19703 v 1.5 0 0 0 1.5 h 4.85703 v -1.5 0 0 0 -1.5 h 5.19703 v 1.5 0 0 0 1.5 h 4.85702 v -1.5 0 0 0 -1.5 h 5.19703 v 1.5 0 0 0 1.5 h 4.85703 v -1.5 0 0 0 -1.5 h 5.19702 v 1.5 0 0 0 1.5 h 4.85703 v -1.5 0 0 0 -1.5 h 5.197034 v 1.5 0 0 0 1.5 h 4.85702 v -1.5 0 0 0 -1.5 h 5.19703 v 1.5 0 0 0 1.5 h 4.85703 v -1.5 0 0 0 -1.5 h 5.19703 v 1.5 0 0 0 1.5 h 4.85702 v -1.5 0 0 0 -1.5 h 5.19703 v 1.5 0 0 0 1.5 h 4.85703 v -1.5 0 0 0 -1.5 h 5.19702 v 1.5 0 0 0 1.5 h 4.85703 v -1.5 0 0 0 -1.5 h 5.19703 v 1.5 0 0 0 1.5 h 4.85702 v -1.5 0 0 0 -1.5 h 5.19703 v 1.5 0 0 0 1.5 h 4.85703 v -1.5 0 0 0 -1.5 h 5.19703 v 1.5 0 0 0 1.5 h 4.85702 v -1.5 0 0 0 -1.5 h 5.19703 v 1.5 0 0 0 1.5 h 4.94203"
       inkscape:connector-curvature="0" />
    <path
       id="path5607"
       inkscape:label="part"
       style="fill:none;stroke:#000000;stroke-width:0.0508"
       d="m 189.45779,209.8719 v 2.16192 h -1.5 v 0 0 0 h -1.5 v 4.90692 h 1.5 v 0 0 0 h 1.5 v 5.24693 h -1.5 v 0 0 0 h -1.5 v 4.90692 h 1.5 v 0 0 0 h 1.5 v 5.24692 h -1.5 v 0 0 0 h -1.5 v 4.90693 h 1.5 v 0 0 0 h 1.5 v 5.24692 h -1.5 v 0 0 0 h -1.5 v 4.90692 h 1.5 v 0 0 0 h 1.5 v 5.24692 h -1.5 v 0 0 0 h -1.5 v 4.90693 h 1.5 v 0 0 0 h 1.5 v 5.24692 h -1.5 v 0 0 0 h -1.5 v 4.90692 h 1.5 v 0 0 0 h 1.5 v 2.16193"
       inkscape:connector-curvature="0" />
    <path
       id="path5609"
       inkscape:label="part"
       style="fill:none;stroke:#000000;stroke-width:0.0508"
       d="m 189.45779,269.8719 h -4.94203 v 1.5 0 0 0 1.5 h -5.19703 v -1.5 0 0 0 -1.5 h -4.85702 v 1.5 0 0 0 1.5 h -5.19703 v -1.5 0 0 0 -1.5 h -4.85703 v 1.5 0 0 0 1.5 h -5.19703 v -1.5 0 0 0 -1.5 h -4.85702 v 1.5 0 0 0 1.5 h -5.19703 v -1.5 0 0 0 -1.5 h -4.85703 v 1.5 0 0 0 1.5 h -5.19702 v -1.5 0 0 0 -1.5 h -4.85703 v 1.5 0 0 0 1.5 h -5.19703 v -1.5 0 0 0 -1.5 h -4.85702 v 1.5 0 0 0 1.5 h -5.19703 v -1.5 0 0 0 -1.5 h -4.85703 v 1.5 0 0 0 1.5 h -5.19703 v -1.5 0 0 0 -1.5 h -4.85702 v 1.5 0 0 0 1.5 h -5.197034 v -1.5 0 0 0 -1.5 h -4.85703 v 1.5 0 0 0 1.5 h -5.19702 v -1.5 0 0 0 -1.5 h -4.85703 v 1.5 0 0 0 1.5 h -5.19703 v -1.5 0 0 0 -1.5 h -4.85702 v 1.5 0 0 0 1.5 h -5.19703 v -1.5 0 0 0 -1.5 h -4.85703 v 1.5 0 0 0 1.5 h -5.19703 v -1.5 0 0 0 -1.5 h -4.85702 v 1.5 0 0 0 1.5 h -5.19703 v -1.5 0 0 0 -1.5 h -4.85703 v 1.5 0 0 0 1.5 h -5.19702 v -1.5 0 0 0 -1.5 h -4.857031 v 1.5 0 0 0 1.5 h -5.197027 v -1.5 0 0 0 -1.5 h -4.857027 v 1.5 0 0 0 1.5 h -5.197027 v -1.5 0 0 0 -1.5 h -4.857027 v 1.5 0 0 0 1.5 H 8.3998102 v -1.5 0 0 0 -1.5 h -4.942027"
       inkscape:connector-curvature="0" />
    <path
       id="path5611"
       inkscape:label="part"
       style="fill:none;stroke:#000000;stroke-width:0.0508"
       d="m 3.4577832,269.8719 v -2.16193 h 1.5 v 0 0 0 h 1.5 v -4.90692 h -1.5 v 0 0 0 h -1.5 v -5.24692 h 1.5 v 0 0 0 h 1.5 v -4.90693 h -1.5 v 0 0 0 h -1.5 v -5.24692 h 1.5 v 0 0 0 h 1.5 v -4.90692 h -1.5 v 0 0 0 h -1.5 v -5.24692 h 1.5 v 0 0 0 h 1.5 v -4.90693 h -1.5 v 0 0 0 h -1.5 v -5.24692 h 1.5 v 0 0 0 h 1.5 v -4.90692 h -1.5 v 0 0 0 h -1.5 v -5.24693 h 1.5 v 0 0 0 h 1.5 v -4.90692 h -1.5 v 0 0 0 h -1.5 v -2.16192"
       inkscape:connector-curvature="0" />
    <path
       id="path5613"
       inkscape:label="part"
       style="fill:none;stroke:#000000;stroke-width:0.0508"
       d="m 6.3461386,73.386434 h 1.991923 v -1.5 0 0 0 -1.5 h 5.2469224 v 1.5 0 0 0 1.5 h 4.906923 v -1.5 0 0 0 -1.5 h 5.246923 v 1.5 0 0 0 1.5 h 4.906924 v -1.5 0 0 0 -1.5 h 5.246923 v 1.5 0 0 0 1.5 H 38.7996 v -1.5 0 0 0 -1.5 h 5.246923 v 1.5 0 0 0 1.5 h 4.906923 v -1.5 0 0 0 -1.5 h 5.246923 v 1.5 0 0 0 1.5 h 4.906923 v -1.5 0 0 0 -1.5 h 5.246923 v 1.5 0 0 0 1.5 h 1.991923"
       inkscape:connector-curvature="0" />
    <path
       id="path5615"
       inkscape:label="part"
       style="fill:none;stroke:#000000;stroke-width:0.0508"
       d="m 66.346138,73.386434 v 1.99192 h 1.5 v 0 0 0 h 1.5 v 5.24692 h -1.5 v 0 0 0 h -1.5 v 4.90693 h 1.5 v 0 0 0 h 1.5 v 5.24692 h -1.5 v 0 0 0 h -1.5 v 4.90692 h 1.5 v 0 0 0 h 1.5 v 5.246936 h -1.5 v 0 0 0 h -1.5 v 4.90692 h 1.5 v 0 0 0 h 1.5 v 5.24692 h -1.5 v 0 0 0 h -1.5 v 4.90692 h 1.5 v 0 0 0 h 1.5 v 5.24693 h -1.5 v 0 0 0 h -1.5 v 4.90692 h 1.5 v 0 0 0 h 1.5 v 5.24692 h -1.5 v 0 0 0 h -1.5 v 1.99193"
       inkscape:connector-curvature="0" />
    <path
       id="path5617"
       inkscape:label="part"
       style="fill:none;stroke:#000000;stroke-width:0.0508"
       d="m 66.346138,133.38644 h -1.991923 v 1.5 0 0 0 1.5 h -5.246923 v -1.5 0 0 0 -1.5 h -4.906923 v 1.5 0 0 0 1.5 h -5.246923 v -1.5 0 0 0 -1.5 h -4.906923 v 1.5 0 0 0 1.5 H 38.7996 v -1.5 0 0 0 -1.5 h -4.906923 v 1.5 0 0 0 1.5 h -5.246923 v -1.5 0 0 0 -1.5 H 23.73883 v 1.5 0 0 0 1.5 h -5.246923 v -1.5 0 0 0 -1.5 h -4.906923 v 1.5 0 0 0 1.5 H 8.3380616 v -1.5 0 0 0 -1.5 h -1.991923"
       inkscape:connector-curvature="0" />
    <path
       id="path5619"
       inkscape:label="part"
       style="fill:none;stroke:#000000;stroke-width:0.0508"
       d="m 6.3461386,133.38644 v -1.99193 h -1.5 v 0 0 0 h -1.5 v -5.24692 h 1.5 v 0 0 0 h 1.5 v -4.90692 h -1.5 v 0 0 0 h -1.5 v -5.24693 h 1.5 v 0 0 0 h 1.5 v -4.90692 h -1.5 v 0 0 0 h -1.5 v -5.24692 h 1.5 v 0 0 0 h 1.5 v -4.90692 h -1.5 v 0 0 0 h -1.5 v -5.246936 h 1.5 v 0 0 0 h 1.5 v -4.90692 h -1.5 v 0 0 0 h -1.5 v -5.24692 h 1.5 v 0 0 0 h 1.5 v -4.90693 h -1.5 v 0 0 0 h -1.5 v -5.24692 h 1.5 v 0 0 0 h 1.5 v -1.99192"
       inkscape:connector-curvature="0" />
    <path
       id="path5621"
       inkscape:label="part"
       style="fill:none;stroke:#000000;stroke-width:0.0508"
       d="m 3.3332513,138.5377 h 5.11202 v 1.5 0 0 0 1.5 h 4.8570297 v -1.5 0 0 0 -1.5 h 5.19703 v 1.5 0 0 0 1.5 h 4.85703 v -1.5 0 0 0 -1.5 h 5.19702 v 1.5 0 0 0 1.5 h 4.85703 v -1.5 0 0 0 -1.5 h 5.19703 v 1.5 0 0 0 1.5 h 4.85702 v -1.5 0 0 0 -1.5 h 5.19703 v 1.5 0 0 0 1.5 h 4.85703 v -1.5 0 0 0 -1.5 h 5.19702 v 1.5 0 0 0 1.5 h 4.85703 v -1.5 0 0 0 -1.5 h 5.19703 v 1.5 0 0 0 1.5 h 4.85703 v -1.5 0 0 0 -1.5 h 5.19702 v 1.5 0 0 0 1.5 h 4.85703 v -1.5 0 0 0 -1.5 h 5.19703 v 1.5 0 0 0 1.5 h 4.85702 v -1.5 0 0 0 -1.5 h 5.19703 v 1.5 0 0 0 1.5 h 4.857029 v -1.5 0 0 0 -1.5 h 5.19702 v 1.5 0 0 0 1.5 h 4.85703 v -1.5 0 0 0 -1.5 h 5.19703 v 1.5 0 0 0 1.5 h 4.85703 v -1.5 0 0 0 -1.5 h 5.19702 v 1.5 0 0 0 1.5 h 4.85703 v -1.5 0 0 0 -1.5 h 5.19703 v 1.5 0 0 0 1.5 h 4.85702 v -1.5 0 0 0 -1.5 h 5.19703 v 1.5 0 0 0 1.5 h 4.85703 v -1.5 0 0 0 -1.5 h 5.19703 v 1.5 0 0 0 1.5 h 4.85702 v -1.5 0 0 0 -1.5 h 5.19703 v 1.5 0 0 0 1.5 h 4.85703 v -1.5 0 0 0 -1.5 h 5.19702 v 1.5 0 0 0 1.5 h 4.85703 v -1.5 0 0 0 -1.5 h 5.11203"
       inkscape:connector-curvature="0" />
    <path
       id="path5623"
       inkscape:label="part"
       style="fill:none;stroke:#000000;stroke-width:0.0508"
       d="m 189.33325,138.5377 v 5.16192 h -1.5 v 0 0 0 h -1.5 v 4.90692 h 1.5 v 0 0 0 h 1.5 v 5.24693 h -1.5 v 0 0 0 h -1.5 v 4.90692 h 1.5 v 0 0 0 h 1.5 v 5.24692 h -1.5 v 0 0 0 h -1.5 v 4.90693 h 1.5 v 0 0 0 h 1.5 v 5.24692 h -1.5 v 0 0 0 h -1.5 v 4.90692 h 1.5 v 0 0 0 h 1.5 v 5.24692 h -1.5 v 0 0 0 h -1.5 v 4.90693 h 1.5 v 0 0 0 h 1.5 v 5.24692 h -1.5 v 0 0 0 h -1.5 v 4.90692 h 1.5 v 0 0 0 h 1.5 v 5.16193"
       inkscape:connector-curvature="0" />
    <path
       id="path5625"
       inkscape:label="part"
       style="fill:none;stroke:#000000;stroke-width:0.0508"
       d="m 189.33325,204.5377 h -5.11203 v -1.5 0 0 0 -1.5 h -4.85703 v 1.5 0 0 0 1.5 h -5.19702 v -1.5 0 0 0 -1.5 h -4.85703 v 1.5 0 0 0 1.5 h -5.19703 v -1.5 0 0 0 -1.5 h -4.85702 v 1.5 0 0 0 1.5 h -5.19703 v -1.5 0 0 0 -1.5 h -4.85703 v 1.5 0 0 0 1.5 H 144.005 v -1.5 0 0 0 -1.5 h -4.85702 v 1.5 0 0 0 1.5 h -5.19703 v -1.5 0 0 0 -1.5 h -4.85703 v 1.5 0 0 0 1.5 h -5.19702 v -1.5 0 0 0 -1.5 h -4.85703 v 1.5 0 0 0 1.5 h -5.19703 v -1.5 0 0 0 -1.5 h -4.85703 v 1.5 0 0 0 1.5 h -5.19702 v -1.5 0 0 0 -1.5 h -4.857029 v 1.5 0 0 0 1.5 h -5.19703 v -1.5 0 0 0 -1.5 h -4.85702 v 1.5 0 0 0 1.5 h -5.19703 v -1.5 0 0 0 -1.5 h -4.85703 v 1.5 0 0 0 1.5 h -5.19702 v -1.5 0 0 0 -1.5 h -4.85703 v 1.5 0 0 0 1.5 h -5.19703 v -1.5 0 0 0 -1.5 h -4.85703 v 1.5 0 0 0 1.5 h -5.19702 v -1.5 0 0 0 -1.5 h -4.85703 v 1.5 0 0 0 1.5 h -5.19703 v -1.5 0 0 0 -1.5 h -4.85702 v 1.5 0 0 0 1.5 h -5.19703 v -1.5 0 0 0 -1.5 h -4.85703 v 1.5 0 0 0 1.5 h -5.19702 v -1.5 0 0 0 -1.5 h -4.85703 v 1.5 0 0 0 1.5 h -5.19703 v -1.5 0 0 0 -1.5 H 8.4452713 v 1.5 0 0 0 1.5 h -5.11202"
       inkscape:connector-curvature="0" />
    <path
       id="path5627"
       inkscape:label="part"
       style="fill:none;stroke:#000000;stroke-width:0.0508"
       d="m 3.3332513,204.5377 v -5.16193 h 1.5 v 0 0 0 h 1.5 v -4.90692 h -1.5 v 0 0 0 h -1.5 v -5.24692 h 1.5 v 0 0 0 h 1.5 V 184.315 h -1.5 v 0 0 0 h -1.5 v -5.24692 h 1.5 v 0 0 0 h 1.5 v -4.90692 h -1.5 v 0 0 0 h -1.5 v -5.24692 h 1.5 v 0 0 0 h 1.5 v -4.90693 h -1.5 v 0 0 0 h -1.5 v -5.24692 h 1.5 v 0 0 0 h 1.5 v -4.90692 h -1.5 v 0 0 0 h -1.5 v -5.24693 h 1.5 v 0 0 0 h 1.5 v -4.90692 h -1.5 v 0 0 0 h -1.5 v -5.16192"
       inkscape:connector-curvature="0" />
    <path
       id="path5629"
       inkscape:label="part"
       style="fill:none;stroke:#000000;stroke-width:0.0508"
       d="m 74.064284,73.268416 h 1.99192 v -1.5 0 0 0 -1.5 h 5.24692 v 1.5 0 0 0 1.5 h 4.90693 v -1.5 0 0 0 -1.5 h 5.24692 v 1.5 0 0 0 1.5 h 4.90692 v -1.5 0 0 0 -1.5 h 5.246926 v 1.5 0 0 0 1.5 h 4.90692 v -1.5 0 0 0 -1.5 h 5.24692 v 1.5 0 0 0 1.5 h 4.90692 v -1.5 0 0 0 -1.5 h 5.24693 v 1.5 0 0 0 1.5 h 4.90692 v -1.5 0 0 0 -1.5 h 5.24692 v 1.5 0 0 0 1.5 h 1.99193"
       inkscape:connector-curvature="0" />
    <path
       id="path5631"
       inkscape:label="part"
       style="fill:none;stroke:#000000;stroke-width:0.0508"
       d="m 134.06428,73.268416 v 1.99192 h 1.5 v 0 0 0 h 1.5 v 5.24692 h -1.5 v 0 0 0 h -1.5 v 4.90693 h 1.5 v 0 0 0 h 1.5 v 5.24692 h -1.5 v 0 0 0 h -1.5 v 4.90692 h 1.5 v 0 0 0 h 1.5 v 5.246934 h -1.5 v 0 0 0 h -1.5 v 4.90692 h 1.5 v 0 0 0 h 1.5 v 5.24692 h -1.5 v 0 0 0 h -1.5 v 4.90692 h 1.5 v 0 0 0 h 1.5 v 5.24693 h -1.5 v 0 0 0 h -1.5 v 4.90692 h 1.5 v 0 0 0 h 1.5 v 5.24692 h -1.5 v 0 0 0 h -1.5 v 1.99193"
       inkscape:connector-curvature="0" />
    <path
       id="path5633"
       inkscape:label="part"
       style="fill:none;stroke:#000000;stroke-width:0.0508"
       d="m 134.06428,133.26842 h -1.99193 v 1.5 0 0 0 1.5 h -5.24692 v -1.5 0 0 0 -1.5 h -4.90692 v 1.5 0 0 0 1.5 h -5.24693 v -1.5 0 0 0 -1.5 h -4.90692 v 1.5 0 0 0 1.5 h -5.24692 v -1.5 0 0 0 -1.5 h -4.90692 v 1.5 0 0 0 1.5 h -5.246926 v -1.5 0 0 0 -1.5 h -4.90692 v 1.5 0 0 0 1.5 h -5.24692 v -1.5 0 0 0 -1.5 h -4.90693 v 1.5 0 0 0 1.5 h -5.24692 v -1.5 0 0 0 -1.5 h -1.99192"
       inkscape:connector-curvature="0" />
    <path
       id="path5635"
       inkscape:label="part"
       style="fill:none;stroke:#000000;stroke-width:0.0508"
       d="m 74.064284,133.26842 v -1.99193 h -1.5 v 0 0 0 h -1.5 v -5.24692 h 1.5 v 0 0 0 h 1.5 v -4.90692 h -1.5 v 0 0 0 h -1.5 v -5.24693 h 1.5 v 0 0 0 h 1.5 v -4.90692 h -1.5 v 0 0 0 h -1.5 v -5.24692 h 1.5 v 0 0 0 h 1.5 v -4.90692 h -1.5 v 0 0 0 h -1.5 v -5.246934 h 1.5 v 0 0 0 h 1.5 v -4.90692 h -1.5 v 0 0 0 h -1.5 v -5.24692 h 1.5 v 0 0 0 h 1.5 v -4.90693 h -1.5 v 0 0 0 h -1.5 v -5.24692 h 1.5 v 0 0 0 h 1.5 v -1.99192"
       inkscape:connector-curvature="0" />
    <path
       id="path5637"
       inkscape:label="part"
       style="fill:none;stroke:#000000;stroke-width:0.0508"
       d="m 3.3332513,275.5377 h 5.11202 v 1.49999 0 0 0 1.5 h 4.8570297 v -1.5 0 0 0 -1.49999 h 5.19703 v 1.49999 0 0 0 1.5 h 4.85703 v -1.5 0 0 0 -1.49999 h 5.19702 v 1.49999 0 0 0 1.5 h 4.85703 v -1.5 0 0 0 -1.49999 h 5.19703 v 1.49999 0 0 0 1.5 h 4.85702 v -1.5 0 0 0 -1.49999 h 5.19703 v 1.49999 0 0 0 1.5 h 4.85703 v -1.5 0 0 0 -1.49999 h 5.19702 v 1.49999 0 0 0 1.5 h 4.85703 v -1.5 0 0 0 -1.49999 h 5.19703 v 1.49999 0 0 0 1.5 h 4.85703 v -1.5 0 0 0 -1.49999 h 5.19702 v 1.49999 0 0 0 1.5 h 4.85703 v -1.5 0 0 0 -1.49999 h 5.19703 v 1.49999 0 0 0 1.5 h 4.85702 v -1.5 0 0 0 -1.49999 h 5.19703 v 1.49999 0 0 0 1.5 h 4.857029 v -1.5 0 0 0 -1.49999 h 5.19702 v 1.49999 0 0 0 1.5 h 4.85703 v -1.5 0 0 0 -1.49999 h 5.19703 v 1.49999 0 0 0 1.5 h 4.85703 v -1.5 0 0 0 -1.49999 h 5.19702 v 1.49999 0 0 0 1.5 h 4.85703 v -1.5 0 0 0 -1.49999 h 5.19703 v 1.49999 0 0 0 1.5 h 4.85702 v -1.5 0 0 0 -1.49999 h 5.19703 v 1.49999 0 0 0 1.5 h 4.85703 v -1.5 0 0 0 -1.49999 h 5.19703 v 1.49999 0 0 0 1.5 h 4.85702 v -1.5 0 0 0 -1.49999 h 5.19703 v 1.49999 0 0 0 1.5 h 4.85703 v -1.5 0 0 0 -1.49999 h 5.19702 v 1.49999 0 0 0 1.5 h 4.85703 v -1.5 0 0 0 -1.49999 h 5.11203"
       inkscape:connector-curvature="0" />
    <path
       id="path5639"
       inkscape:label="part"
       style="fill:none;stroke:#000000;stroke-width:0.0508"
       d="m 189.33325,275.5377 v 5.16191 h -1.5 v 0 0 0 h -1.5 v 4.90692 h 1.5 v 0 0 0 h 1.5 v 5.24693 h -1.5 v 0 0 0 h -1.5 v 4.90692 h 1.5 v 0 0 0 h 1.5 v 5.24692 h -1.5 v 0 0 0 h -1.5 v 4.90693 h 1.5 v 0 0 0 h 1.5 v 5.24692 h -1.5 v 0 0 0 h -1.5 v 4.90692 h 1.5 v 0 0 0 h 1.5 v 5.24692 h -1.5 v 0 0 0 h -1.5 v 4.90693 h 1.5 v 0 0 0 h 1.5 v 5.24692 h -1.5 v 0 0 0 h -1.5 v 4.90692 h 1.5 v 0 0 0 h 1.5 v 5.16193"
       inkscape:connector-curvature="0" />
    <path
       id="path5641"
       inkscape:label="part"
       style="fill:none;stroke:#000000;stroke-width:0.0508"
       d="m 189.33325,341.53769 h -5.11203 v -1.5 0 0 0 -1.5 h -4.85703 v 1.5 0 0 0 1.5 h -5.19702 v -1.5 0 0 0 -1.5 h -4.85703 v 1.5 0 0 0 1.5 h -5.19703 v -1.5 0 0 0 -1.5 h -4.85702 v 1.5 0 0 0 1.5 h -5.19703 v -1.5 0 0 0 -1.5 h -4.85703 v 1.5 0 0 0 1.5 H 144.005 v -1.5 0 0 0 -1.5 h -4.85702 v 1.5 0 0 0 1.5 h -5.19703 v -1.5 0 0 0 -1.5 h -4.85703 v 1.5 0 0 0 1.5 h -5.19702 v -1.5 0 0 0 -1.5 h -4.85703 v 1.5 0 0 0 1.5 h -5.19703 v -1.5 0 0 0 -1.5 h -4.85703 v 1.5 0 0 0 1.5 h -5.19702 v -1.5 0 0 0 -1.5 h -4.857029 v 1.5 0 0 0 1.5 h -5.19703 v -1.5 0 0 0 -1.5 h -4.85702 v 1.5 0 0 0 1.5 h -5.19703 v -1.5 0 0 0 -1.5 h -4.85703 v 1.5 0 0 0 1.5 h -5.19702 v -1.5 0 0 0 -1.5 h -4.85703 v 1.5 0 0 0 1.5 h -5.19703 v -1.5 0 0 0 -1.5 h -4.85703 v 1.5 0 0 0 1.5 h -5.19702 v -1.5 0 0 0 -1.5 h -4.85703 v 1.5 0 0 0 1.5 h -5.19703 v -1.5 0 0 0 -1.5 h -4.85702 v 1.5 0 0 0 1.5 h -5.19703 v -1.5 0 0 0 -1.5 h -4.85703 v 1.5 0 0 0 1.5 h -5.19702 v -1.5 0 0 0 -1.5 h -4.85703 v 1.5 0 0 0 1.5 h -5.19703 v -1.5 0 0 0 -1.5 H 8.4452713 v 1.5 0 0 0 1.5 h -5.11202"
       inkscape:connector-curvature="0" />
    <path
       id="path5643"
       inkscape:label="part"
       style="fill:none;stroke:#000000;stroke-width:0.0508"
       d="m 3.3332513,341.53769 v -5.16193 h 1.5 v 0 0 0 h 1.5 v -4.90692 h -1.5 v 0 0 0 h -1.5 v -5.24692 h 1.5 v 0 0 0 h 1.5 v -4.90693 h -1.5 v 0 0 0 h -1.5 v -5.24692 h 1.5 v 0 0 0 h 1.5 v -4.90692 h -1.5 v 0 0 0 h -1.5 v -5.24692 h 1.5 v 0 0 0 h 1.5 v -4.90693 h -1.5 v 0 0 0 h -1.5 v -5.24692 h 1.5 v 0 0 0 h 1.5 v -4.90692 h -1.5 v 0 0 0 h -1.5 v -5.24693 h 1.5 v 0 0 0 h 1.5 v -4.90692 h -1.5 v 0 0 0 h -1.5 v -5.16191"
       inkscape:connector-curvature="0" />
    <path
       id="path5645"
       inkscape:label="part"
       style="fill:none;stroke:#000000;stroke-width:0.051;stroke-miterlimit:4;stroke-dasharray:none"
       d="m 3.3332513,5.5377012 h 4.942027 v -1.5 0 0 0 -1.5 h 5.1970267 v 1.5 0 0 0 1.5 h 4.857027 v -1.5 0 0 0 -1.5 h 5.197027 v 1.5 0 0 0 1.5 h 4.857027 v -1.5 0 0 0 -1.5 h 5.197027 v 1.5 0 0 0 1.5 h 4.857027 v -1.5 0 0 0 -1.5 h 5.197027 v 1.5 0 0 0 1.5 h 4.857027 v -1.5 0 0 0 -1.5 h 5.197027 v 1.5 0 0 0 1.5 h 4.857027 v -1.5 0 0 0 -1.5 h 5.197027 v 1.5 0 0 0 1.5 h 4.857027 v -1.5 0 0 0 -1.5 h 5.19703 v 1.5 0 0 0 1.5 h 4.85702 v -1.5 0 0 0 -1.5 h 5.19703 v 1.5 0 0 0 1.5 h 4.85703 v -1.5 0 0 0 -1.5 h 5.19703 v 1.5 0 0 0 1.5 h 4.85702 v -1.5 0 0 0 -1.5 h 5.197028 v 1.5 0 0 0 1.5 h 4.85703 v -1.5 0 0 0 -1.5 h 5.19702 v 1.5 0 0 0 1.5 h 4.85703 v -1.5 0 0 0 -1.5 h 5.19703 v 1.5 0 0 0 1.5 h 4.85702 v -1.5 0 0 0 -1.5 h 5.19703 v 1.5 0 0 0 1.5 h 4.85703 v -1.5 0 0 0 -1.5 h 5.19703 v 1.5 0 0 0 1.5 h 4.85702 v -1.5 0 0 0 -1.5 h 5.19703 v 1.5 0 0 0 1.5 h 4.85703 v -1.5 0 0 0 -1.5 h 5.19702 v 1.5 0 0 0 1.5 h 4.85703 v -1.5 0 0 0 -1.5 h 5.19703 v 1.5 0 0 0 1.5 h 4.85702 v -1.5 0 0 0 -1.5 h 5.19703 v 1.5 0 0 0 1.5 h 4.94203"
       inkscape:connector-curvature="0" />
    <path
       id="path5647"
       inkscape:label="part"
       style="fill:none;stroke:#000000;stroke-width:0.0508"
       d="m 189.33325,5.5377012 v 2.16192 h -1.5 v 0 0 0 h -1.5 v 4.9069298 h 1.5 v 0 0 0 h 1.5 v 5.24692 h -1.5 v 0 0 0 h -1.5 v 4.90692 h 1.5 v 0 0 0 h 1.5 v 5.24693 h -1.5 v 0 0 0 h -1.5 v 4.90692 h 1.5 v 0 0 0 h 1.5 v 5.24692 h -1.5 v 0 0 0 h -1.5 v 4.90693 h 1.5 v 0 0 0 h 1.5 v 5.24692 h -1.5 v 0 0 0 h -1.5 v 4.90692 h 1.5 v 0 0 0 h 1.5 v 5.24692 h -1.5 v 0 0 0 h -1.5 v 4.90693 h 1.5 v 0 0 0 h 1.5 v 2.16192"
       inkscape:connector-curvature="0" />
    <path
       id="path5649"
       inkscape:label="part"
       style="fill:none;stroke:#000000;stroke-width:0.0508"
       d="m 189.33325,65.537701 h -4.94203 v 1.5 0 0 0 1.5 h -5.19703 v -1.5 0 0 0 -1.5 h -4.85702 v 1.5 0 0 0 1.5 h -5.19703 v -1.5 0 0 0 -1.5 h -4.85703 v 1.5 0 0 0 1.5 h -5.19702 v -1.5 0 0 0 -1.5 h -4.85703 v 1.5 0 0 0 1.5 h -5.19703 v -1.5 0 0 0 -1.5 h -4.85702 v 1.5 0 0 0 1.5 h -5.19703 v -1.5 0 0 0 -1.5 h -4.85703 v 1.5 0 0 0 1.5 h -5.19703 v -1.5 0 0 0 -1.5 h -4.85702 v 1.5 0 0 0 1.5 h -5.19703 v -1.5 0 0 0 -1.5 h -4.85703 v 1.5 0 0 0 1.5 h -5.19702 v -1.5 0 0 0 -1.5 h -4.85703 v 1.5 0 0 0 1.5 h -5.197028 v -1.5 0 0 0 -1.5 h -4.85702 v 1.5 0 0 0 1.5 h -5.19703 v -1.5 0 0 0 -1.5 h -4.85703 v 1.5 0 0 0 1.5 h -5.19703 v -1.5 0 0 0 -1.5 h -4.85702 v 1.5 0 0 0 1.5 h -5.19703 v -1.5 0 0 0 -1.5 h -4.857027 v 1.5 0 0 0 1.5 h -5.197027 v -1.5 0 0 0 -1.5 h -4.857027 v 1.5 0 0 0 1.5 h -5.197027 v -1.5 0 0 0 -1.5 h -4.857027 v 1.5 0 0 0 1.5 H 38.43744 v -1.5 0 0 0 -1.5 h -4.857027 v 1.5 0 0 0 1.5 h -5.197027 v -1.5 0 0 0 -1.5 h -4.857027 v 1.5 0 0 0 1.5 h -5.197027 v -1.5 0 0 0 -1.5 h -4.857027 v 1.5 0 0 0 1.5 H 8.2752783 v -1.5 0 0 0 -1.5 h -4.942027"
       inkscape:connector-curvature="0" />
    <path
       id="path5651"
       inkscape:label="part"
       style="fill:none;stroke:#000000;stroke-width:0.0508"
       d="m 3.3332513,65.537701 v -2.16192 h 1.5 v 0 0 0 h 1.5 v -4.90693 h -1.5 v 0 0 0 h -1.5 v -5.24692 h 1.5 v 0 0 0 h 1.5 v -4.90692 h -1.5 v 0 0 0 h -1.5 v -5.24692 h 1.5 v 0 0 0 h 1.5 v -4.90693 h -1.5 v 0 0 0 h -1.5 v -5.24692 h 1.5 v 0 0 0 h 1.5 v -4.90692 h -1.5 v 0 0 0 h -1.5 v -5.24693 h 1.5 v 0 0 0 h 1.5 v -4.90692 h -1.5 v 0 0 0 h -1.5 v -5.24692 h 1.5 v 0 0 0 h 1.5 V 7.6996212 h -1.5 v 0 0 0 h -1.5 v -2.16192"
       inkscape:connector-curvature="0" />
    <circle
       style="fill:none;stroke:#000000;stroke-width:0.02;stroke-miterlimit:4;stroke-dasharray:none;stroke-opacity:1"
       id="path838"
       cx="201.97566"
       cy="115.86944"
       r="20" />
    <circle
       style="fill:none;stroke:#000000;stroke-width:0.02;stroke-miterlimit:4;stroke-dasharray:none;stroke-opacity:1"
       id="path838-6"
       cx="161.32899"
       cy="93.738434"
       r="20" />
    <circle
       style="fill:none;stroke:#000000;stroke-width:0.02;stroke-miterlimit:4;stroke-dasharray:none;stroke-opacity:1"
       id="path838-9"
       cx="213.31781"
       cy="73.260963"
       r="20" />
    <circle
       style="fill:none;stroke:#000000;stroke-width:0.02;stroke-miterlimit:4;stroke-dasharray:none;stroke-opacity:1"
       id="path838-5"
       cx="214.30821"
       cy="26.481487"
       r="20" />
    <circle
       style="fill:none;stroke:#000000;stroke-width:0.02;stroke-miterlimit:4;stroke-dasharray:none;stroke-opacity:1"
       id="path867"
       cx="18.817852"
       cy="195.5531"
       r="1.5" />
    <circle
       style="fill:none;stroke:#000000;stroke-width:0.02;stroke-miterlimit:4;stroke-dasharray:none;stroke-opacity:1"
       id="path867-3"
       cx="174.81786"
       cy="195.5531"
       r="1.5" />
    <circle
       style="fill:none;stroke:#000000;stroke-width:0.02;stroke-miterlimit:4;stroke-dasharray:none;stroke-opacity:1"
       id="path867-31"
       cx="18.817852"
       cy="332.5531"
       r="1.5" />
    <circle
       style="fill:none;stroke:#000000;stroke-width:0.02;stroke-miterlimit:4;stroke-dasharray:none;stroke-opacity:1"
       id="path867-3-9"
       cx="174.81786"
       cy="332.5531"
       r="1.5" />
    <rect
       style="fill:none;stroke:#000000;stroke-width:0.02;stroke-miterlimit:4;stroke-dasharray:none;stroke-opacity:1"
       id="rect854"
       width="36"
       height="80"
       x="8.5531015"
       y="-136.41785"
       transform="rotate(90)" />
    <rect
       style="fill:none;stroke:#000000;stroke-width:0.051;stroke-miterlimit:4;stroke-dasharray:none;stroke-opacity:1"
       id="rect856"
       width="6.1999998"
       height="6.1999998"
       x="73.333351"
       y="51.337601" />
    <rect
       y="51.337601"
       x="93.333351"
       height="6.1999998"
       width="6.1999998"
       id="rect858"
       style="fill:none;stroke:#000000;stroke-width:0.051;stroke-miterlimit:4;stroke-dasharray:none;stroke-opacity:1" />
    <rect
       style="fill:none;stroke:#000000;stroke-width:0.051;stroke-miterlimit:4;stroke-dasharray:none;stroke-opacity:1"
       id="rect860"
       width="6.1999998"
       height="6.1999998"
       x="113.33335"
       y="51.337601" />
    <circle
       style="fill:none;stroke:#000000;stroke-width:0.051;stroke-miterlimit:4;stroke-dasharray:none;stroke-opacity:1"
       id="path864"
       cx="24.333351"
       cy="88.537598"
       r="8" />
    <circle
       r="8"
       cy="88.537598"
       cx="50.333351"
       id="circle866"
       style="fill:none;stroke:#000000;stroke-width:0.051;stroke-miterlimit:4;stroke-dasharray:none;stroke-opacity:1" />
  </g>
  <g
     id="g5654"
     inkscape:groupmode="layer"
     inkscape:label="newlayer"
     transform="translate(6.6921487,6.6199738)" />
</svg>
